# xmcd CD database file
#
# Track frame offsets:
#	150
#	19143
#	39016
#	57396
#	76795
#	95459
#	113489
#	134461
#	154229
#	172468
#	192620
#	210471
#	230011
#	248198
#	271988
#	293083
#	308440
#	326556
#	345931
#
# Disc length: 4792 seconds
#
# Revision: 0
# Processed by: cddbd v1.5.1PL0 Copyright (c) Steve Scherf et al.
# Submitted via: CDex 1.51
#
DISCID=0612b613
DTITLE=Kenny G - Songbird The Ultimate Collection
DYEAR=1900
DGENRE=Jazz
TTITLE0=Brazil
TTITLE1=By the time this night is over
TTITLE2=Don't make me wait for love
TTITLE3=Everlasting
TTITLE4=Forever in love
TTITLE5=Havana
TTITLE6=Jasmine flower
TTITLE7=My heart will go on
TTITLE8=One more time
TTITLE9=Sillhouette
TTITLE10=Songbird
TTITLE11=The Champions theme
TTITLE12=The Girl from Ipanema
TTITLE13=The look of love
TTITLE14=The Moment
TTITLE15=The Wedding Song
TTITLE16=Theme from Dying Young
TTITLE17=We've saved the best for last
TTITLE18=What a wonderful world
EXTD=
EXTT0=
EXTT1=
EXTT2=
EXTT3=
EXTT4=
EXTT5=
EXTT6=
EXTT7=
EXTT8=
EXTT9=
EXTT10=
EXTT11=
EXTT12=
EXTT13=
EXTT14=
EXTT15=
EXTT16=
EXTT17=
EXTT18=
PLAYORDER=
